<svg id="Layer_1" data-name="Layer 1" xmlns="http://www.w3.org/2000/svg" viewBox="0 0 1089.11 1093.48"><defs><style>.cls-1{fill:#3fbbc4;stroke:#046dab;stroke-miterlimit:10;stroke-width:72px;}.cls-2{fill:#fff;}</style></defs><title>ICE cube</title><rect class="cls-1" x="35.95" y="39" width="1020.1" height="1020.1" rx="12" ry="12"/><path class="cls-2" d="M534,126.3q13.69-1.37,27.38-2.61l27.38-2.41L616.14,119l27.38-2.18,27.38-2.06,13.69-1,13.69-1,27.38-1.92c4.56-.34,9.13-.61,13.69-.66s9.13.09,13.69.21c9.13.31,18.25.19,27.38.21H987.78v465c0,6-.16,12,.29,18a42.35,42.35,0,0,1-.36,9l-1.26,9c-.85,6-1.65,12-2.56,18q-2.63,18-5.52,35.94c-1.94,12-4,24-6.26,35.94-2.28-12-4.32-24-6.26-35.94s-3.77-24-5.52-35.94c-.91-6-1.7-12-2.56-18l-1.26-9a42.35,42.35,0,0,1-.36-9c.45-6,.24-12,.29-18V126.3L972.1,142H780.43c-9.13,0-18.25-.1-27.38.21-4.56.12-9.13.28-13.69.21s-9.13-.32-13.69-.66l-27.38-1.92-13.69-1-13.69-1-27.38-2.06-27.38-2.18-27.38-2.28-27.38-2.41Q547.69,127.65,534,126.3Z"/><path class="cls-2" d="M123,701.39q2,8.13,3.71,16.26c1.2,5.42,2.27,10.84,3.38,16.26s2.16,10.84,3.12,16.26,2,10.84,2.93,16.26l1.4,8.13.7,4.07c.24,1.36.47,2.71.58,4.07a49.47,49.47,0,0,1-.17,8.13c-.2,2.71-.13,5.42-.14,8.13V961.58L123,946.08H289.53a25.74,25.74,0,0,0,3.47-.14,16.52,16.52,0,0,1,3.47-.2,18.27,18.27,0,0,1,3.47.84l3.47,1c4.63,1.33,9.25,2.78,13.88,4.23s9.25,3,13.88,4.61,9.25,3.27,13.88,5.14c-4.63,1.87-9.25,3.53-13.88,5.14s-9.25,3.13-13.88,4.61-9.25,2.9-13.88,4.23l-3.47,1a18.27,18.27,0,0,1-3.47.84,16.52,16.52,0,0,1-3.47-.2,25.74,25.74,0,0,0-3.47-.14h-182V799c0-2.71.06-5.42-.14-8.13a49.47,49.47,0,0,1-.17-8.13c.11-1.36.35-2.71.58-4.07l.7-4.07,1.4-8.13c.9-5.42,2-10.84,2.93-16.26s2.09-10.84,3.12-16.26,2.18-10.84,3.38-16.26S121.69,706.81,123,701.39Z"/></svg>